<svg id="图层_1" data-name="图层 1" xmlns="http://www.w3.org/2000/svg" viewBox="0 0 850.39 850.39"><defs><style>.cls-1{fill:#ea6363;}.cls-2{fill:#fff;}.cls-3{fill:#0899fe;}.cls-4{fill:#b18147;}.cls-5{fill:#dbdcdc;}</style></defs><title>din_no_store</title><path class="cls-1" d="M111.74,729.8S133.14,717,145.68,723s43.19,12.74,43.19,12.74,71.51,6.78,100-2.28,101.64-2.57,101.64-2.57L370.92,615l-60.6-56.18-160.72,8S99.7,730.69,111.74,729.8Z"/><path class="cls-2" d="M90.84,631.09c9.1,13,28.09-6.69,28.09-6.69s-.54,10.57,6.86,12.08,33.14-29.32,33.14-29.32-12.07,49,26.31,74.59l4.28,63.35-13,23.94,8.71,4.63,40-11.95,5.36-71.31h40s-.84,67.42,2.73,70.43,46.84,19,47.49,11.37S306,747.47,306,747.47s12.29-52.55,4.34-65.9c0,0,38.49-23.63,28.65-68.62l-2.15-24s85.3,24,80.37-25.33c-2.74-27.4-80.37-41.6-80.37-41.6s-150.33,8.23-163.87-.8C172.94,521.23,69.43,600.49,90.84,631.09Z"/><path class="cls-1" d="M185.12,525.11l128.79-2s2.89,9.63-5.14,16.15S268.21,556,253.38,555.65,183.86,549.05,185.12,525.11Z"/><path d="M251.4,700.66h-3.29c-22.41,0-86.64-.68-95.53-56.9-8.32-52.59,27.15-122.6,28.67-125.56l14.91,7.64c-.35.68-34.49,68.13-27,115.3,6,37.88,45.7,42.76,79.67,42.76h1.92c34,0,73.68-4.88,79.68-42.76,7.46-47.17-26.68-114.62-27-115.3l14.91-7.64c1.51,3,37,73,28.67,125.56C338,700,273.81,700.66,251.4,700.66Z"/><path d="M249.65,563.17c-34.85,0-64.16-12.36-71.27-30l14-5.61c4.07,10.13,26.62,20.61,57.31,20.61,31.2,0,53.7-10.64,57.43-20.93l14.15,5.13C314.64,550.49,285.2,563.17,249.65,563.17Z"/><path d="M128.42,644a11.16,11.16,0,0,1-1.8-.16A16.46,16.46,0,0,1,114.83,636c-8.13,4.34-20.14,8.34-28.89.84-17.55-15,8-50.23,19.81-64.66,18.24-22.29,56.82-56.38,58.45-57.82a7.52,7.52,0,0,1,10,11.29c-.39.35-39.3,34.72-56.76,56.06-21,25.71-24,41.68-21.67,43.7,2.6,2.23,12.27-2,18.54-6.89a7.53,7.53,0,0,1,12.17,5.7h0s.3,3.54,1.85,4.57c4.62-2.33,16.7-15.34,26.79-29a7.53,7.53,0,0,1,12.1,9C143.56,640.65,133,644,128.42,644Zm-.79-15Z"/><path d="M384.36,603.16c-13.35,0-29.71-2.29-49.27-6.88a7.52,7.52,0,0,1,3.44-14.65c45.61,10.7,63.58,6.31,70.62.73,3.71-2.94,5.44-7.11,5.44-13.13-.84-8.24-42.3-28.2-87-41.85A7.52,7.52,0,0,1,332,513c29.35,9,97.62,32.39,97.62,56.24,0,10.68-3.75,19.07-11.14,24.93C410.92,600.16,399.62,603.16,384.36,603.16Z"/><path d="M183.18,742.46c-5.61,0-18.29-1.1-32.63-9.63-8-4.75-20.33.13-28.5,3.35-6.68,2.63-11.1,4.37-15.43,2a8.53,8.53,0,0,1-4.24-5.95c-1.54-8.39,13.88-77.74,26.53-102.78a7.48,7.48,0,0,1,13.36,6.74c-9.64,19.07-20.57,65.57-24,85.43,10.35-4,26.42-9.68,39.95-1.63,14.35,8.54,26.25,7.5,26.37,7.49a7.48,7.48,0,0,1,1.64,14.87A28.61,28.61,0,0,1,183.18,742.46Z"/><path d="M252.84,747.95a69.1,69.1,0,0,1-27.4-5.9,7.48,7.48,0,0,1,6.46-13.49c.39.18,19.29,8.85,35.92,1.42a7.48,7.48,0,0,1,6.1,13.66A51.47,51.47,0,0,1,252.84,747.95Z"/><path d="M187.16,783.57c-8.67,0-13.78-3.15-16.66-6.08-5.12-5.2-5.47-10.61-4.87-14.24,1.41-8.4,9.57-15.12,15.61-19-4.3-15.61-3.69-44.89-3.12-58.6a7.52,7.52,0,1,1,15,.63c-1,23.35.14,51.62,3.37,56.5a7.4,7.4,0,0,1,1.54,6.32,7.49,7.49,0,0,1-4.07,5.14c-6,3-13,8.55-13.54,11.54-.05.32.44.87.74,1.18,1.14,1.16,3.58,1.7,6.87,1.57,11.19-.49,25.46-8.35,28.57-11.32,1.5-6.54,2.13-38.14,1.84-64.83a7.52,7.52,0,0,1,7.44-7.6H226a7.53,7.53,0,0,1,7.53,7.44c.46,42.82-.76,67.14-3.62,72.29-4.05,7.3-22.83,16.72-37.2,18.68A41.15,41.15,0,0,1,187.16,783.57Z"/><path d="M312.27,783.6a40,40,0,0,1-5.37-.38c-13.79-1.88-32-11.17-36-18.42-2.86-5.15-4.08-29.48-3.62-72.29a7.53,7.53,0,0,1,7.53-7.44h.08a7.52,7.52,0,0,1,7.44,7.6c-.29,26.92.35,58.86,1.88,65,2.38,2.48,15.94,10.3,27,10.86,1.91.1,5.32,0,6.92-1.62,1-1,.89-1.37.87-1.5-.47-2.91-6.87-8.18-12.28-10.94a7.52,7.52,0,0,1-2.35-11.52c3.08-5.1,3.83-36.89,2.51-63.26a7.53,7.53,0,0,1,7.14-7.89,7.42,7.42,0,0,1,7.9,7.14c1,19.15,1.66,49.87-2.46,65.64,5.62,3.81,13.09,10.29,14.41,18.44.59,3.67.21,9.16-5,14.46C326,780.41,320.85,783.6,312.27,783.6Z"/><path class="cls-2" d="M490.48,369.55l-.06-5.93A65.25,65.25,0,0,0,439.53,300v-1.61h0v-.1h0c-4.86-64.56-44.92-119.83-102-148.41l-.23-.2c-.12-2.21-.27-4.58-.27-5.62a46.35,46.35,0,0,0-46.35-46.35,62.85,62.85,0,0,0-9,.57l-2.51-2.58C273,82.22,261.88,75.93,245.51,75.93c-28.44,0-54.81,21.77-51.17,53.7a29.48,29.48,0,0,0,.91,4.71l-4,3.1c-74.37,21.72-128,85.07-133.31,161.85l-.55,1.25A65.26,65.26,0,0,0,8.82,363.62l-.06,5.93S-5,526.87,243,525.09l0,0,6.23-.06h.31l1.42,0C504.45,529,490.48,369.55,490.48,369.55Z"/><path d="M66.73,305.68,50,304.29l.69-8.35C57.2,217.84,111.88,152.62,190,129.8l8-2.35,4.69,16.08-8,2.35C123.29,166.75,73.32,226.19,67.42,297.33Z"/><path d="M440.69,307.15a8.38,8.38,0,0,1-8.35-7.75C427.84,238.95,391.4,186,334.88,157.7a8.38,8.38,0,0,1,7.5-15c60.92,30.48,101.8,90,106.68,155.43a8.38,8.38,0,0,1-7.73,9Z"/><path d="M199.34,147.76a22.27,22.27,0,0,1-7-8.37,29.14,29.14,0,0,1-2.85-10.19,51,51,0,0,1,1.43-19.89C194.44,96.17,203.6,84.86,215.05,78a62.38,62.38,0,0,1,38.48-8.6,42.41,42.41,0,0,1,20,7A41.1,41.1,0,0,1,287.07,93a7.39,7.39,0,1,1-13.41,6.22v0a26.31,26.31,0,0,0-8.53-10.69,29.51,29.51,0,0,0-13.18-4.59,49.12,49.12,0,0,0-29.81,6,40.35,40.35,0,0,0-19,23,44,44,0,0,0-1.81,15.27c.26,5.29,1,9.16,4.13,13.06a4.52,4.52,0,0,1-6.13,6.54Z"/><path d="M261.57,104.65a40.6,40.6,0,0,1,12.6-9.12A48.2,48.2,0,0,1,289.52,92a73.33,73.33,0,0,1,7.84-.08,50.05,50.05,0,0,1,7.9,1.3,50.77,50.77,0,0,1,14.84,6.08,51.82,51.82,0,0,1,25.36,39.6l.18,4.07.08,3.33a10.75,10.75,0,0,1-2,7.39,6.14,6.14,0,0,1-8.55,1.54,6.21,6.21,0,0,1-.74-.6l-1-.94a9.16,9.16,0,0,1-2.59-6.63l-.41-6.62a50.29,50.29,0,0,0-2.95-11.32,40.27,40.27,0,0,0-14.83-18,36.46,36.46,0,0,0-10.82-5,48.24,48.24,0,0,0-12.06-1.81,44,44,0,0,0-12.24.9,38.31,38.31,0,0,0-11.39,5.17h0a3.7,3.7,0,0,1-4.62-5.71Z"/><path d="M250,431.73c-42.22,0-83.5-11.72-116.22-33a8.38,8.38,0,0,1,9.14-14C172.91,404.23,210.94,415,250,415s76.94-10.72,107-30.2A8.38,8.38,0,0,1,366,398.84C333.34,420.05,292.12,431.73,250,431.73Z"/><ellipse cx="177.65" cy="302.69" rx="18.3" ry="24.59"/><ellipse cx="322.13" cy="302.69" rx="18.3" ry="24.59"/><circle class="cls-1" cx="428.31" cy="361.37" r="31.4"/><circle class="cls-1" cx="71.47" cy="361.37" r="31.4"/><path d="M120.89,403.35c3.66-8.88,7.4-17.3,9.14-26.82a61.55,61.55,0,0,0-1.09-28A56.6,56.6,0,0,0,22.4,342a58.06,58.06,0,0,0-3.77,13.32c-.74,4.56-.64,9.07-.7,14.76v.23l0,.46a87.62,87.62,0,0,0,.06,8.8c.18,3.09.5,6.2.92,9.3a120,120,0,0,0,4,18.35,122.84,122.84,0,0,0,16,33.9c14,21,34.52,37.08,57.44,48.54,23.18,11.15,48.44,18.5,74.4,22.44,26,4.12,52.24,5.36,79.21,5.22a8.18,8.18,0,0,1,.16,16.35h-.38c-26.78.37-54.47-.65-81.61-4.74S113.9,517.6,88.6,505.38C63.54,492.92,40.25,474.92,24.26,451A140.6,140.6,0,0,1,5.89,412.27a137.72,137.72,0,0,1-4.64-21A110.5,110.5,0,0,1,.17,369.17l0,.68c.08-5,0-11.26,1-17.3a75.74,75.74,0,0,1,5-17.51,73.89,73.89,0,0,1,139.09,8.85,78.48,78.48,0,0,1,1.32,35.64,71.86,71.86,0,0,1-5.22,17.1A39.64,39.64,0,0,1,130.25,411a6.19,6.19,0,0,1-9.54-7.22Z"/><path d="M369.53,411a39.64,39.64,0,0,1-11.09-14.38,71.86,71.86,0,0,1-5.22-17.1,78.48,78.48,0,0,1,1.32-35.64A73.93,73.93,0,0,1,493.63,335a75.74,75.74,0,0,1,5,17.51c1,6,.9,12.29,1,17.3l0-.68a110.5,110.5,0,0,1-1.08,22.12,137.7,137.7,0,0,1-4.64,21A140.59,140.59,0,0,1,475.52,451c-16,23.95-39.28,42-64.34,54.41-25.3,12.22-52.38,19.54-79.58,23.51S276.78,534,250,533.63h-.38a8.18,8.18,0,0,1,.16-16.35c27,.14,53.18-1.09,79.21-5.22,26-3.94,51.23-11.29,74.4-22.44,22.92-11.46,43.48-27.56,57.44-48.54a122.84,122.84,0,0,0,16-33.9,120,120,0,0,0,4-18.35c.42-3.1.74-6.2.92-9.3a87.62,87.62,0,0,0,.06-8.8l0-.44V370c-.06-5.69,0-10.2-.7-14.76A58.06,58.06,0,0,0,477.39,342a56.6,56.6,0,0,0-106.54,6.55,61.55,61.55,0,0,0-1.09,28c1.74,9.51,5.48,17.94,9.14,26.82l.18.44a6.19,6.19,0,0,1-9.54,7.23Z"/><path d="M274.18,366.08a7.52,7.52,0,0,1-6.8-4.3c-.13-.28-7.4-14.75-17.62-14.93-10,.18-17.28,14.76-17.35,14.91a7.52,7.52,0,1,1-13.61-6.41c.45-.95,11.15-23.2,31-23.55,20.08.35,30.78,22.6,31.23,23.55a7.53,7.53,0,0,1-6.8,10.73Z"/><path d="M317.12,742.46a28.61,28.61,0,0,1-3-.13,7.48,7.48,0,0,1,1.65-14.87c.35,0,12.15,1,26.36-7.49,13.69-8.14,30-2.29,40.31,1.77-3-25.48-15.14-97.2-30.57-119.83a7.48,7.48,0,0,1,12.36-8.43c20.52,30.09,35.26,130.44,33.73,138.72a8.52,8.52,0,0,1-4.24,5.94c-4.34,2.41-8.75.67-15.43-2-8.17-3.23-20.52-8.1-28.5-3.36C335.4,741.35,322.72,742.46,317.12,742.46Z"/><path class="cls-3" d="M295.35,572.17l-19.81-.33a10.21,10.21,0,0,0-11.07,9.28l-1.07,18.38-9-22.62a12.09,12.09,0,0,0-7.43-6c-15.66-3.33-37.47.22-39.71,10.12L195.86,642.8c-.83,5.29,1.88,10.94,7.18,11.77,0,0,13.87,0,19.78-.08s6.56-4.58,7.39-9.88l1.9-16.5,7,22.39c1.68,4,5.76,5.75,9.87,5.75,0,0,31.59-.57,37.93-.66s10.57-3.66,11.07-9.28l5.45-61.77C304,578.93,301,572.67,295.35,572.17Z"/><path class="cls-2" d="M249.07,659.23c-5.95,0-10.67-2.83-12.67-7.57l-2.93-9.33-.3,2.61c-.84,5.38-1.94,12.42-10.32,12.51-5.92.07-19.8.09-19.8.09a11.21,11.21,0,0,1-8.48-5.72,14.84,14.84,0,0,1-1.64-9.49l11.39-61.91c2.87-12.68,27.54-15.83,43.26-12.49a15,15,0,0,1,9.55,7.79L261.21,586l.29-5a13.16,13.16,0,0,1,4.67-9,13,13,0,0,1,9.63-3l19.8.34a11.12,11.12,0,0,1,8.65,5.71,16.86,16.86,0,0,1,2.18,9.9L301,646.58c-.63,7.17-6.13,11.88-14,12C280.66,658.66,249.07,659.23,249.07,659.23Zm-18.32-45.37L242,649.61c1.45,3.38,5.75,3.67,7,3.67,0,0,31.56-.57,37.89-.66,4.82-.07,7.79-2.46,8.14-6.56l5.45-61.77a10.89,10.89,0,0,0-1.36-6.33,5.38,5.38,0,0,0-4-2.82l-19.69-.33a7.52,7.52,0,0,0-5.49,1.65,7.17,7.17,0,0,0-2.56,4.91L265.6,613l-14-35a9.31,9.31,0,0,0-5.27-4.21c-15.66-3.32-34.59.79-36.19,7.86l-11.36,61.71a8.74,8.74,0,0,0,1,5.55,5.24,5.24,0,0,0,3.75,2.74s13.49-.05,19.29-.12c2.87,0,3.49-1,4.47-7.24Z"/><rect class="cls-4" x="328.82" y="449.87" width="323.03" height="30.36" rx="12.71" ry="12.71" transform="translate(-171.75 600.46) rotate(-55.04)"/><path d="M407,609.73a21.14,21.14,0,0,1-12.15-3.84l-4.05-2.83a21.35,21.35,0,0,1-5.26-29.68L556.1,329.46a21.35,21.35,0,0,1,29.68-5.26l4.06,2.84a21.34,21.34,0,0,1,5.26,29.68L424.57,600.63a21.18,21.18,0,0,1-13.75,8.76A21.76,21.76,0,0,1,407,609.73ZM573.6,337.59a4.13,4.13,0,0,0-3.39,1.73L399.69,583.24a4.15,4.15,0,0,0,1,5.71l4.05,2.83a4,4,0,0,0,3.06.66,4.07,4.07,0,0,0,2.65-1.67L581,346.85a4.15,4.15,0,0,0-1-5.71l-4.05-2.83A4,4,0,0,0,573.6,337.59Z"/><rect class="cls-5" x="439.36" y="159.88" width="391.97" height="195.48" rx="25.9" ry="25.9" transform="translate(262.24 -317.55) rotate(34.96)"/><path d="M733.53,448.44a34.32,34.32,0,0,1-19.73-6.22L435,247.33a34.59,34.59,0,0,1-8.51-48.06L508.83,81.52A34.59,34.59,0,0,1,556.89,73l278.78,194.9A34.58,34.58,0,0,1,844.19,316L761.86,433.72A34.51,34.51,0,0,1,733.53,448.44Zm-9.86-20.32a17.32,17.32,0,0,0,24.08-4.27L830.07,306.1A17.36,17.36,0,0,0,825.81,282L547,87.12a17.37,17.37,0,0,0-24.08,4.26L440.62,209.14a17.36,17.36,0,0,0,4.27,24.09Z"/><path d="M482.61,207.38a8.22,8.22,0,0,1-5.7-.07,11.75,11.75,0,0,1-2-1.13,9.48,9.48,0,0,1-2.52-2.61l-.37-.68a4.52,4.52,0,0,1-.44-4.37,6.4,6.4,0,0,1,.63-1.1,5.36,5.36,0,0,1,2.62-1.94,59.36,59.36,0,0,0,11.59-5.32,8.09,8.09,0,0,1,5.38-1.27,7.47,7.47,0,0,1,3.44,1.29,7.18,7.18,0,0,1,1.28,1.18l.22.29a5.94,5.94,0,0,1,1.51,4.84,5.44,5.44,0,0,1-.92,2.72,5.89,5.89,0,0,1-1.63,1.52A67.26,67.26,0,0,1,482.61,207.38Zm36.09-54c.44.31.83.21,1.18-.29l3.82-5.45c.13-.19.16-.33.09-.43a.53.53,0,0,0-.36-.18l-1.6.28a7.19,7.19,0,0,1-5.16-1.24l-.09-.07a9.14,9.14,0,0,1-3.2-4.63,7.48,7.48,0,0,1-.26-1,4.79,4.79,0,0,1,.71-4.41,5.11,5.11,0,0,1,4-2.26,73,73,0,0,0,23.28-5.81,8.67,8.67,0,0,1,5.59-.56,7.51,7.51,0,0,1,4.61,2.82l.43.58a5.16,5.16,0,0,1,1.07,4.67,5.08,5.08,0,0,1-.81,2,5.89,5.89,0,0,1-2.08,1.76q-.77.3-1.61.69c-.21,0-.32.15-.31.34a.49.49,0,0,0,.2.42L600.11,177A6.2,6.2,0,0,1,593,187.15l-3.29-2.31a.71.71,0,0,0-1.12.2l-7.65,10.89c-.35.5-.31.9.13,1.21l6.76,4.75a6,6,0,0,1,2.51,4,6,6,0,0,1-1,4.67,5.84,5.84,0,0,1-4,2.51,6,6,0,0,1-4.59-1l-6.76-4.75q-.66-.46-1.18.29l-7.58,10.8a.71.71,0,0,0,.2,1.12l5.35,3.76a5.91,5.91,0,0,1,2.56,4,6.37,6.37,0,0,1-5.08,7.23,5.9,5.9,0,0,1-4.67-1L490.19,182a5.89,5.89,0,0,1-2.56-4,6.37,6.37,0,0,1,5.08-7.23,5.9,5.9,0,0,1,4.67,1l5.63,4a.71.71,0,0,0,1.12-.2l7.58-10.8q.53-.75-.13-1.21l-7-4.94a6.19,6.19,0,0,1-2.64-4,5.83,5.83,0,0,1,1-4.62,6,6,0,0,1,4-2.56,6.09,6.09,0,0,1,4.72,1.07ZM504,207.67a3.75,3.75,0,0,1,.43-.82,6.07,6.07,0,0,1,3.37-2.4,5.68,5.68,0,0,1,4.86.47,3.82,3.82,0,0,1,.82.43,6.55,6.55,0,0,1,2.5,3.43,6.42,6.42,0,0,1-.25,5.15q-2.14,4.25-4.14,7.89l-.46.66a6.85,6.85,0,0,1-3.66,2.62,7.51,7.51,0,0,1-5.37-.54l-.19-.13a3.89,3.89,0,0,1-.82-.43,5.64,5.64,0,0,1-2.31-3.3,6.57,6.57,0,0,1,.69-5Q501.76,211.85,504,207.67Zm19-36.12c-.44-.31-.83-.21-1.18.29l-7.58,10.8a.71.71,0,0,0,.19,1.12l5.54,3.89q.75.53,1.21-.13l7.58-10.8a.81.81,0,0,0-.22-1.28Zm.86,50.1a7,7,0,0,1,.8-1.54,5.81,5.81,0,0,1,2.37-2,5.19,5.19,0,0,1,4.71.08,4.68,4.68,0,0,1,1.35.67,7.25,7.25,0,0,1,2.53,3.18,7,7,0,0,1,.54,5.42q-1.39,4.77-2.86,9.07a7.14,7.14,0,0,1-.8,1.54,6.29,6.29,0,0,1-7.81,1.94l-.7-.21a8.5,8.5,0,0,1-1.19-.7,6.1,6.1,0,0,1-2.28-3.14,6.41,6.41,0,0,1,.09-5.12Q522.32,226.7,523.91,221.65Zm14.89-72.54a.71.71,0,0,0-1.12.2L530,160.2c-.35.5-.31.9.13,1.21l5.54,3.89a.81.81,0,0,0,1.28-.22l7.65-10.89c.31-.44.21-.83-.29-1.18Zm6.63,39.28a.81.81,0,0,0-.22-1.28l-5.63-4a.81.81,0,0,0-1.28.22l-7.58,10.8c-.31.44-.21.83.29,1.19l5.63,4c.5.35.91.31,1.21-.13ZM545,234.92a5,5,0,0,1,.92-2.71,7.1,7.1,0,0,1,1.18-1.28,5.16,5.16,0,0,1,4.57-.72l.44.17a9.2,9.2,0,0,1,4.7,3.3,9.39,9.39,0,0,1,1.87,5.52q-.07,8.08-.63,14.28a5.43,5.43,0,0,1-1,2.56,6.87,6.87,0,0,1-1.53,1.59,5.9,5.9,0,0,1-4.92.61l-1.48-.48a6.18,6.18,0,0,1-2.14-.94,7,7,0,0,1-2-2.28,8.16,8.16,0,0,1-1.18-5.31Q544.6,242.9,545,234.92Zm1.46-63.19a.81.81,0,0,0,.22,1.28l5.63,4a.81.81,0,0,0,1.28-.22l7.65-10.89q.46-.66-.29-1.18l-5.63-4q-.75-.53-1.21.13Zm7.07,39.45a.71.71,0,0,0,1.12-.2l7.58-10.8q.53-.75-.13-1.21l-5.92-4.15a.81.81,0,0,0-1.28.22l-7.58,10.8q-.46.66.29,1.18Zm15.69-22.35q.65.46,1.18-.29l7.65-10.89a.71.71,0,0,0-.19-1.12L572,172.38c-.5-.35-.91-.31-1.21.13l-7.65,10.89a.81.81,0,0,0,.22,1.28Z"/><path d="M658.22,205.46a6.86,6.86,0,0,1,1.65,9.43l-18.2,25.92a6.86,6.86,0,0,1-9.43,1.65l-19.06-13.38a.71.71,0,0,0-1.12.2l-30,42.73a6.86,6.86,0,0,1-9.43,1.65l-.28-.2A6.86,6.86,0,0,1,570.7,264l52.54-74.85a6.86,6.86,0,0,1,9.43-1.65Zm-38.77,13.3c-.35.5-.31.9.13,1.21l13.15,9.23A.81.81,0,0,0,634,229l2.9-4.13c.31-.44.21-.83-.29-1.19l-13.15-9.23a.71.71,0,0,0-1.12.2Zm83.1,17.82A6.86,6.86,0,0,1,704.2,246L657.46,312.6q-3.56,5.07-6.66,6.89a9.19,9.19,0,0,1-7.06.86q-4.85-.88-15.66-8l-.19-.13a7.3,7.3,0,0,1-3-4.18,9.64,9.64,0,0,1,.07-5.7,13.32,13.32,0,0,1,.45-1.64,4.9,4.9,0,0,1,.71-1.61,4.61,4.61,0,0,1,1.95-1.58,4,4,0,0,1,3.87.47l.09.07q3.88,2.86,9.61,6.88a3.79,3.79,0,0,0,2.43.93A3.13,3.13,0,0,0,646,304.3l23.8-33.9q.53-.75-.13-1.21l-19.82-13.91a6.86,6.86,0,0,1-1.65-9.43l18.39-26.2a6.86,6.86,0,0,1,9.43-1.65ZM646.13,211.7c.31-.44.21-.83-.29-1.18l-13.15-9.23a.71.71,0,0,0-1.12.2L629.07,205q-.53.75.13,1.21l13.15,9.23a.81.81,0,0,0,1.28-.22Zm16.1,37.38a.81.81,0,0,0,.22,1.28L676.17,260c.44.31.83.21,1.18-.29l3-4.32a.71.71,0,0,0-.2-1.12l-13.71-9.63c-.5-.35-.91-.31-1.21.13Zm27.38-6.85a.71.71,0,0,0-.2-1.12l-13.71-9.63c-.5-.35-.91-.31-1.21.13L672,235.18a.81.81,0,0,0,.22,1.28l13.71,9.63q.66.46,1.18-.29Z"/><path d="M796.33,326.25a6.45,6.45,0,0,1-4.41,2.79,6.6,6.6,0,0,1-5-1.14l-32.12-22.55a.81.81,0,0,0-1.28.22l-6.07,8.64a.81.81,0,0,0,.22,1.28l24,16.88a6.86,6.86,0,0,1,1.65,9.43l-18.92,27a20.14,20.14,0,0,1-5.87,6,9.43,9.43,0,0,1-6.58,1q-5-1.11-12.87-6.23l-.19-.13a7.74,7.74,0,0,1-3-4.34,9.64,9.64,0,0,1,.07-5.7,4.35,4.35,0,0,1,.25-.95,4.92,4.92,0,0,1,.71-1.61,4.67,4.67,0,0,1,2.11-1.6,4.07,4.07,0,0,1,4,.54l6.48,4.55q2.06,1.45,3.12-.05L757,339.73a.71.71,0,0,0-.2-1.12l-17-11.93c-.5-.35-.91-.31-1.21.13L711.11,366a6.66,6.66,0,0,1-9.43,1.65l-.85-.59a6.6,6.6,0,0,1-2.78-4.33,6.46,6.46,0,0,1,1.13-5.1l27.49-39.16a.71.71,0,0,0-.2-1.12l-15.4-10.81c-.5-.35-.91-.31-1.21.13l-19.32,27.52a6.66,6.66,0,0,1-9.43,1.65l-.47-.33a6.59,6.59,0,0,1-2.78-4.33A6.45,6.45,0,0,1,679,326l23.73-33.81a6.86,6.86,0,0,1,9.43-1.65l22.16,15.56q.66.46,1.18-.29l6.07-8.64q.53-.75-.13-1.21l-31.18-21.89a6.59,6.59,0,0,1-2.78-4.33,6.78,6.78,0,0,1,5.54-7.89,6.6,6.6,0,0,1,5,1.14l31.08,21.82c.44.31.83.21,1.18-.29l4.35-6.2a6.45,6.45,0,0,1,4.41-2.79,6.6,6.6,0,0,1,5,1.14l1.13.79a6.66,6.66,0,0,1,1.65,9.43l-4.35,6.2a.81.81,0,0,0,.22,1.28l31.93,22.42a6.6,6.6,0,0,1,2.78,4.33A6.45,6.45,0,0,1,796.33,326.25Z"/></svg>