<svg id="圖層_1" data-name="圖層 1" xmlns="http://www.w3.org/2000/svg" viewBox="0 0 850.39 850.39"><defs><style>.cls-1{fill:#f90;}.cls-2{fill:#fff;}.cls-3{fill:#ea6363;}.cls-4{fill:#0899fe;}.cls-5{fill:#f7c523;}.cls-6{fill:#b18147;}</style></defs><title>din_error</title><path class="cls-1" d="M154.91,487.95a25.09,25.09,0,0,0-48.61,0L36.23,762H225Z"/><path class="cls-1" d="M226.27,762H34.94a26.5,26.5,0,0,0,0,53H226.27a26.5,26.5,0,0,0,0-53Z"/><polygon class="cls-2" points="164.82 537.85 129.95 537.85 96.28 537.85 79.72 603.25 129.95 603.25 181.59 603.25 164.82 537.85"/><polygon class="cls-2" points="136.85 654.2 100.94 654.2 66.26 654.2 49.19 721.57 100.94 721.57 154.12 721.57 136.85 654.2"/><polygon class="cls-2" points="194.56 654.2 158.64 654.2 123.96 654.2 106.9 721.57 158.64 721.57 211.83 721.57 194.56 654.2"/><path class="cls-1" d="M684.21,565.73a19.23,19.23,0,0,0-37.27,0L593.21,775.82H737.94Z"/><path class="cls-1" d="M738.92,775.82H592.22a20.32,20.32,0,1,0,0,40.64h146.7a20.32,20.32,0,0,0,0-40.64Z"/><polygon class="cls-2" points="692.83 601.53 665.67 601.53 639.46 601.53 626.56 651.67 665.67 651.67 705.88 651.67 692.83 601.53"/><polygon class="cls-2" points="670.37 690.74 642.82 690.74 616.24 690.74 603.15 742.39 642.82 742.39 683.6 742.39 670.37 690.74"/><polygon class="cls-2" points="714.61 690.74 687.07 690.74 660.48 690.74 647.39 742.39 687.07 742.39 727.85 742.39 714.61 690.74"/><path class="cls-3" d="M287.83,737.45s21-12.52,33.29-6.7,42.36,12.49,42.36,12.49,70.14,6.65,98.12-2.24,99.69-2.52,99.69-2.52L542,624.89l-59.43-55.1L325,577.63S276,738.32,287.83,737.45Z"/><path class="cls-2" d="M267.33,640.63c8.92,12.76,27.55-6.56,27.55-6.56s-.53,10.36,6.72,11.85,32.5-28.75,32.5-28.75-11.84,48.07,25.8,73.16l4.19,62.13-12.73,23.48,8.54,4.54,39.27-11.72,5.26-69.94h39.18s-.82,66.12,2.68,69.08,45.94,18.67,46.58,11.15-14.53-24.27-14.53-24.27,12.05-51.54,4.25-64.64c0,0,37.75-23.17,28.1-67.3l-2.11-23.53s83.66,23.53,78.83-24.84c-2.69-26.87-78.83-40.8-78.83-40.8s-147.44,8.07-160.72-.79C347.86,532.88,246.34,610.62,267.33,640.63Z"/><path class="cls-3" d="M359.8,536.69l126.32-1.94s2.83,9.45-5,15.84S441.3,567,426.75,566.65,358.57,560.18,359.8,536.69Z"/><path d="M424.83,708.87H422.4c-21.21,0-85.69,0-94.52-55.8-8.16-51.58,26.63-120.24,28.11-123.14l14.62,7.49c-.34.66-33.83,66.82-26.51,113.08,5.88,37.15,44.82,41.94,78.14,41.94h1.89c33.32,0,72.26-4.79,78.14-41.94,7.32-46.26-26.17-112.42-26.51-113.08l14.62-7.49c1.48,2.9,36.27,71.56,28.11,123.14C509.79,708.19,446.83,708.87,424.83,708.87Z"/><path d="M423.09,574c-34.18,0-62.93-12.12-69.9-29.47L366.89,539c4,9.94,26.11,20.22,56.21,20.22,30.6,0,52.67-10.44,56.32-20.53l13.88,5C486.83,561.58,458,574,423.09,574Z"/><path d="M304.23,653.32a11.61,11.61,0,0,1-1.8-.15,16.15,16.15,0,0,1-11.56-7.76c-8,4.26-19.75,8.19-28.34.82-4.84-4.15-9.11-12.7-1.92-29.86,4.13-9.86,11.71-21.78,21.35-33.56,17.89-21.86,55.73-55.3,57.33-56.71a7.38,7.38,0,0,1,9.76,11.07c-.38.34-38.54,34.06-55.67,55C272.75,617.39,269.83,633,272.14,635c2.54,2.18,12-1.92,18.19-6.76a7.38,7.38,0,0,1,11.94,5.59h0s.29,3.47,1.81,4.48c4.53-2.29,16.38-15,26.28-28.41a7.38,7.38,0,0,1,11.86,8.78c-.26.35-6.36,8.57-13.62,16.78C315.48,650.29,308.89,653.31,304.23,653.32Zm-.82-14.71Z"/><path d="M555.22,613.25c-13.09,0-29.14-2.25-48.32-6.75a7.38,7.38,0,1,1,3.37-14.37c44.75,10.5,62.37,6.19,69.27.72,3.64-2.88,5.33-7,5.33-12.88,0-.06-1.32-8.52-41.51-25.24-21.78-9.05-43.57-15.74-43.78-15.81a7.38,7.38,0,0,1,4.31-14.12c.94.29,23.24,7.13,46,16.63C594,559.9,599.62,571.73,599.62,580c0,10.48-3.68,18.7-10.92,24.45C581.26,610.3,570.18,613.25,555.22,613.25Z"/><path d="M357.9,749.86c-5.5,0-17.94-1.08-32-9.45-7.83-4.66-19.94.13-28,3.29-6.55,2.59-10.88,4.29-15.13,1.93a8.36,8.36,0,0,1-4.16-5.83c-1.51-8.23,13.61-76.24,26-100.81a7.34,7.34,0,0,1,13.09,6.62c-9.45,18.7-20.17,64.31-23.54,83.79,10.16-4,25.92-9.49,39.18-1.6,14.08,8.38,25.74,7.35,25.86,7.35a7.34,7.34,0,1,1,1.61,14.58A28.06,28.06,0,0,1,357.9,749.86Z"/><path d="M426.22,755.25a67.8,67.8,0,0,1-26.88-5.78,7.34,7.34,0,0,1,6.33-13.23c.32.15,18.89,8.69,35.24,1.4a7.34,7.34,0,1,1,6,13.4A50.46,50.46,0,0,1,426.22,755.25Z"/><path d="M361.81,790.19c-8.5,0-13.52-3.09-16.34-6-5-5.1-5.37-10.41-4.77-14,1.38-8.18,9.27-14.73,15.18-18.58-1.53-5.55-2.75-14.57-3.13-30.09-.35-14.11.18-26.93.2-27.47a7.38,7.38,0,0,1,14.75.62c-1.18,28.29.74,51.43,3.29,55.38a7.38,7.38,0,0,1-2.45,11.27c-6.5,3.24-12.83,8.64-13.28,11.32-.05.31.44.86.73,1.16,1.12,1.14,3.51,1.68,6.73,1.54,11-.48,25-8.18,28-11.1,1.47-6.41,2.09-37.41,1.81-63.58a7.38,7.38,0,0,1,14.76-.16c0,.15.16,15.61-.08,31.6-.52,34-2.3,37.19-3.47,39.3-4,7.15-22.38,16.4-36.48,18.32A40.43,40.43,0,0,1,361.81,790.19Zm28.77-25.3h0Zm.5-.94h0ZM371,750.15h0Zm-.08-.1v0Z"/><path d="M484.51,790.21a39,39,0,0,1-5.27-.37c-13.53-1.84-31.33-11-35.28-18.06-1.17-2.11-2.95-5.31-3.47-39.31-.24-16-.08-31.44-.08-31.6a7.38,7.38,0,0,1,7.38-7.3h.08a7.38,7.38,0,0,1,7.3,7.46c-.28,26.21.34,57.26,1.81,63.61,2.88,2.86,15.88,10.25,26.51,10.79,1.86.09,5.22,0,6.79-1.58.94-1,.88-1.34.86-1.46-.45-2.82-6.74-8-12.06-10.74a7.39,7.39,0,0,1-2.4-11.17c2.85-4.87,4-33.26,2.57-62.17a7.38,7.38,0,1,1,14.74-.74c0,.61.75,15.06.59,30.81-.17,17.74-1.34,27.71-2.89,33.64,5.5,3.75,12.73,10.07,14,18,.58,3.6.2,9-4.91,14.18C498,787.09,492.93,790.21,484.51,790.21Zm-27.38-25Zm-.47-.89,20.13-13.94,0,0Z"/><path class="cls-2" d="M659.29,384.12l-.06-5.82a64,64,0,0,0-49.91-62.41v-1.58h0v-.09h0c-4.76-63.32-44.06-117.53-100-145.56l-.22-.2c-.11-2.17-.26-4.49-.26-5.51a45.46,45.46,0,0,0-45.46-45.46,61.64,61.64,0,0,0-8.84.56l-2.46-2.53c-6.1-13.2-17-19.38-33-19.38-27.9,0-53.76,21.35-50.19,52.67a28.91,28.91,0,0,0,.89,4.62l-4,3C292.85,177.78,240.26,239.92,235,315.22l-.54,1.23a64,64,0,0,0-47.6,61.86l-.06,5.82S173.33,538.42,416.62,536.67l0,0,6.11-.06h.31l1.39,0C673,540.55,659.29,384.12,659.29,384.12Z"/><path d="M243.69,321.48l-16.38-1.36.68-8.19c6.35-76.6,60-140.56,136.63-162.95l7.89-2.3,4.61,15.77-7.89,2.3c-70.07,20.46-119.08,78.76-124.86,148.53Z"/><path d="M610.47,322.93a8.22,8.22,0,0,1-8.18-7.6,165.08,165.08,0,0,0-29.36-82,177.79,177.79,0,0,0-66.23-56.94,8.22,8.22,0,1,1,7.35-14.7,194.27,194.27,0,0,1,72.36,62.24,181.52,181.52,0,0,1,32.27,90.21,8.22,8.22,0,0,1-7.58,8.8Z"/><path d="M373.75,166.6a22,22,0,0,1-6.93-8.2,29.87,29.87,0,0,1-2.81-10,49.3,49.3,0,0,1-.24-9.76,48.66,48.66,0,0,1,1.66-9.75,50.48,50.48,0,0,1,8.93-17.7,55,55,0,0,1,14.79-13,59.08,59.08,0,0,1,18.19-7.26,62.65,62.65,0,0,1,9.72-1.36,64,64,0,0,1,9.83.19,46.27,46.27,0,0,1,10,2.09,38.2,38.2,0,0,1,9.6,4.76,37.07,37.07,0,0,1,7.87,7.4,43.37,43.37,0,0,1,5.39,8.9A7.25,7.25,0,0,1,446.65,119l0,0a25.86,25.86,0,0,0-8.37-10.47A28.29,28.29,0,0,0,425.35,104a48.06,48.06,0,0,0-29.24,5.92A39.89,39.89,0,0,0,377.5,132.4a38.51,38.51,0,0,0-1.53,7.34c-.18,1.25-.21,2.52-.29,3.79s0,2.55.07,3.84.13,2.47.28,3.64a20.17,20.17,0,0,0,.67,3.29,16.8,16.8,0,0,0,3.07,5.89l0,.06a4.44,4.44,0,0,1-6.06,6.36Z"/><path d="M434.78,124.31a47.71,47.71,0,0,1,5.57-5,36.92,36.92,0,0,1,6.79-4,47,47,0,0,1,15.06-3.51,48.78,48.78,0,0,1,7.69-.07,51.68,51.68,0,0,1,7.77,1.22,53.07,53.07,0,0,1,14.55,6,51.15,51.15,0,0,1,23.5,31,53.42,53.42,0,0,1,1.4,7.88c.1,1.33.23,2.66.21,4v1.74c0,.43,0,1,0,1.53a13,13,0,0,1-.22,3.45,9.89,9.89,0,0,1-1.71,3.8,6.08,6.08,0,0,1-8.5,1.34l-.42-.33-1.14-1a7.18,7.18,0,0,1-2-3.08,12.38,12.38,0,0,1-.59-3.42c0-.6-.1-1.19-.13-1.91l-.08-1.7c0-1-.14-1.92-.21-2.88a46.85,46.85,0,0,0-1-5.65,43.91,43.91,0,0,0-1.83-5.45,38.69,38.69,0,0,0-19.62-20.56,41.31,41.31,0,0,0-5.51-2,48.79,48.79,0,0,0-5.77-1.23c-2-.27-3.87-.39-6.06-.5a43.52,43.52,0,0,0-12,.86,37.82,37.82,0,0,0-11.17,5.07l0,0a3.63,3.63,0,0,1-4.52-5.6Z"/><path d="M423.4,445.11c-41.41,0-81.89-11.49-114-32.36a8.22,8.22,0,1,1,9-13.78c29.45,19.15,66.75,29.7,105,29.7s75.46-10.52,104.89-29.62a8.22,8.22,0,0,1,8.94,13.78C505.17,433.65,464.74,445.11,423.4,445.11Z"/><ellipse cx="352.48" cy="318.55" rx="17.95" ry="24.12"/><ellipse cx="494.18" cy="318.55" rx="17.95" ry="24.12"/><circle class="cls-3" cx="598.32" cy="376.1" r="30.79"/><circle class="cls-3" cx="248.34" cy="376.1" r="30.79"/><path d="M296.81,417.28c.89-2.25,1.82-4.34,2.69-6.48s1.71-4.26,2.47-6.43a75.44,75.44,0,0,0,3.8-13.39c.43-2.3.69-4.64.89-7a64.33,64.33,0,0,0,.15-7,58.91,58.91,0,0,0-.62-6.83,54.45,54.45,0,0,0-6.84-19.25A54.85,54.85,0,0,0,291.08,340,55.38,55.38,0,0,0,241,324.17a55,55,0,0,0-24.52,11.33,55.8,55.8,0,0,0-9.47,9.78,54.9,54.9,0,0,0-10.49,24.84,57.56,57.56,0,0,0-.6,6.8l0,1.73,0,2,0,4v.07l0,.6,0,.86,0,1.06c0,.72,0,1.46,0,2.2,0,1.49.06,3,.14,4.51.16,3,.48,6.08.9,9.12a122.33,122.33,0,0,0,19.64,51.28,130.19,130.19,0,0,0,24.88,27.33,148.31,148.31,0,0,0,15.1,11,183.73,183.73,0,0,0,16.4,9.23c5.64,2.8,11.48,5.26,17.37,7.58,3,1.08,5.93,2.25,9,3.21,1.51.5,3,1,4.53,1.5l4.58,1.38a292,292,0,0,0,37.52,8.33c12.72,2,25.58,3.34,38.51,4.12l4.85.3,4.86.2c3.24.14,6.48.28,9.73.32s6.47.17,9.77.14h8.64l1.33,0h0a8,8,0,0,1-.23,16h-2.37l-2.48,0-5,.06c-3.29.07-6.66,0-10,0s-6.69-.1-10-.21l-5-.15-5-.27c-13.4-.71-26.8-2-40.15-4A308.85,308.85,0,0,1,303.45,532l-4.9-1.44c-1.63-.5-3.25-1-4.87-1.57-3.26-1-6.45-2.25-9.67-3.39-6.38-2.47-12.71-5.15-18.88-8.2a200.91,200.91,0,0,1-18.06-10.14A165.61,165.61,0,0,1,230.22,495,147.54,147.54,0,0,1,202,464a139.74,139.74,0,0,1-22.53-58.56c-.49-3.49-.86-7-1.05-10.56q-.15-2.66-.18-5.37c0-.91,0-1.82,0-2.74l0-1.41,0-.74.06-.87,0,.67,0-3.91,0-2,.06-2.21a71.81,71.81,0,0,1,5.77-26.06,74,74,0,0,1,9-15.42,73,73,0,0,1,12.45-12.75A72.45,72.45,0,0,1,313.8,342.57a72.69,72.69,0,0,1,8.78,25.09,75.44,75.44,0,0,1,.77,8.86,83.36,83.36,0,0,1-1.36,17.4,80.11,80.11,0,0,1-2,8.51,55,55,0,0,1-3.09,8.26,44.42,44.42,0,0,1-4.58,7.65A34.73,34.73,0,0,1,306,424.8a6.07,6.07,0,0,1-9.38-7Z"/><path d="M540.67,424.8a34.72,34.72,0,0,1-6.29-6.46,44.42,44.42,0,0,1-4.58-7.65,55,55,0,0,1-3.09-8.26,80.12,80.12,0,0,1-2-8.51,83.36,83.36,0,0,1-1.36-17.4,75.44,75.44,0,0,1,.77-8.86,71.09,71.09,0,0,1,8.78-25.09,71.57,71.57,0,0,1,10.68-14.2,72.52,72.52,0,0,1,109.86,6.49,72.21,72.21,0,0,1,13.93,32.59,75,75,0,0,1,.83,8.89l.06,2.21,0,2,0,3.91,0-.67.06.87,0,.74,0,1.41c0,.93,0,1.84,0,2.74q0,2.71-.18,5.37c-.2,3.55-.57,7.07-1.05,10.56A139.74,139.74,0,0,1,644.67,464,147.54,147.54,0,0,1,616.44,495a165.61,165.61,0,0,1-16.85,12.26,200.91,200.91,0,0,1-18.06,10.14c-6.18,3-12.5,5.73-18.88,8.2-3.22,1.14-6.42,2.38-9.67,3.39-1.62.52-3.24,1.07-4.87,1.57l-4.9,1.44a308.85,308.85,0,0,1-39.72,8.53c-13.35,2-26.75,3.29-40.15,4l-5,.27-5,.15c-3.35.11-6.7.21-10,.21s-6.72.09-10,0l-5-.06-2.48,0h-2.37a8,8,0,0,1-.23-16h0l1.33,0h8.64c3.31,0,6.52-.09,9.77-.14s6.49-.18,9.73-.32l4.86-.2,4.85-.3c12.93-.78,25.8-2.1,38.51-4.12a292,292,0,0,0,37.52-8.33l4.58-1.38c1.52-.48,3-1,4.53-1.5,3-1,6-2.14,9-3.21,5.9-2.32,11.73-4.78,17.37-7.58a183.73,183.73,0,0,0,16.4-9.23,148.31,148.31,0,0,0,15.1-11,130.19,130.19,0,0,0,24.88-27.33A122.33,122.33,0,0,0,649.91,403c.42-3,.73-6.09.9-9.12.09-1.51.13-3,.14-4.51,0-.74,0-1.48,0-2.2l0-1.06,0-.86,0-.59s0-.06,0-.08l0-4,0-2,0-1.73a57.55,57.55,0,0,0-.6-6.8,54.9,54.9,0,0,0-10.49-24.84,55.8,55.8,0,0,0-9.47-9.78,55,55,0,0,0-24.52-11.33A55.38,55.38,0,0,0,555.58,340a54.85,54.85,0,0,0-8.26,10.89,56.06,56.06,0,0,0-6.84,19.25,58.91,58.91,0,0,0-.62,6.83,64.33,64.33,0,0,0,.15,7c.2,2.34.46,4.67.89,7a75.44,75.44,0,0,0,3.8,13.39c.76,2.18,1.64,4.28,2.47,6.43s1.8,4.23,2.69,6.48l.2.5a6.07,6.07,0,0,1-9.37,7Z"/><path d="M447.15,380.72a7.38,7.38,0,0,1-6.67-4.22c-.1-.22-7.18-14.34-17.15-14.64-10,.3-17.08,14.5-17.15,14.64a7.38,7.38,0,0,1-13.34-6.31c.44-.93,10.93-22.75,30.37-23.1h.26c19.43.34,29.93,22.17,30.37,23.1a7.38,7.38,0,0,1-6.67,10.53Z"/><path d="M489.26,749.86a28,28,0,0,1-3-.13,7.34,7.34,0,0,1,1.62-14.58c.33,0,11.91,1,25.85-7.35,13.42-8,29.4-2.24,39.54,1.74-3-25-14.85-95.33-30-117.53a7.34,7.34,0,1,1,12.12-8.26c11.16,16.37,19.66,51,24.83,77.12,4.48,22.67,9.16,54,8.26,58.94a8.36,8.36,0,0,1-4.16,5.83c-4.26,2.36-8.58.65-15.13-1.93-8-3.17-20.13-7.95-28-3.29C507.2,748.78,494.77,749.86,489.26,749.86Z"/><path d="M235.86,770.69H25.35L98.12,486.15a33.53,33.53,0,0,1,65,0ZM47.1,753.8h167L146.73,490.33a16.64,16.64,0,0,0-32.25,0Z"/><path d="M226.27,823.69H34.94a34.94,34.94,0,1,1,0-69.88H226.27a34.94,34.94,0,0,1,0,69.88Zm-191.33-53a18.06,18.06,0,1,0,0,36.11H226.27a18.06,18.06,0,0,0,0-36.11Z"/><path d="M748.81,780.74H582.34l56.42-220.63a27.68,27.68,0,0,1,53.63,0h0ZM604.08,763.86h123L676,564.3a10.79,10.79,0,0,0-20.91,0Z"/><path d="M738.92,821.38H592.22a28.76,28.76,0,1,1,0-57.52h146.7a28.76,28.76,0,0,1,0,57.52Zm-146.7-40.64a11.88,11.88,0,0,0,0,23.75h146.7a11.88,11.88,0,0,0,0-23.75Z"/><path class="cls-4" d="M467.92,581.76l-19.43-.33a10,10,0,0,0-10.86,9.1l-1,18-8.85-22.18a11.85,11.85,0,0,0-7.28-5.91c-15.36-3.27-36.75.21-38.95,9.92L370.34,651c-.81,5.19,1.85,10.73,7,11.54,0,0,13.6,0,19.4-.08s6.44-4.5,7.25-9.69l1.86-16.18,6.9,22c1.65,3.92,5.65,5.64,9.68,5.64,0,0,31-.55,37.2-.64s10.37-3.59,10.86-9.1l5.34-60.58C476.37,588.39,473.43,582.25,467.92,581.76Z"/><path class="cls-2" d="M422.53,667.14c-5.84,0-10.47-2.78-12.43-7.43l-.1-.26-2.79-8.87-.33,2.79c-.79,5-1.87,11.94-10.08,12-5.74.07-19.29.08-19.43.08l-.45,0a10.89,10.89,0,0,1-7.86-5.57,14.59,14.59,0,0,1-1.61-9.31l11.2-60.83c2.79-12.32,27-15.41,42.4-12.14a14.7,14.7,0,0,1,9.37,7.63l4,10,.29-4.92a13,13,0,0,1,13.92-11.84l19.54.34a10.92,10.92,0,0,1,8.48,5.6,16.51,16.51,0,0,1,2.13,9.71l-5.34,60.58c-.62,7-6,11.65-13.72,11.76C453.58,666.59,422.84,667.14,422.53,667.14Zm-7-9.58c1.55,3.47,5.7,3.74,6.95,3.74.26,0,31-.55,37.16-.64,4.72-.07,7.64-2.41,8-6.43L473,593.65a10.7,10.7,0,0,0-1.33-6.2,5.28,5.28,0,0,0-3.89-2.76l-19.52-.34a7.1,7.1,0,0,0-7.69,6.45l-1.81,31L425,587.46a9.17,9.17,0,0,0-5.18-4.13c-15.31-3.26-33.83.75-35.48,7.66l-11.15,60.57a8.6,8.6,0,0,0,.94,5.44,5.17,5.17,0,0,0,3.48,2.65c1.9,0,13.84,0,19.11-.08,2.82,0,3.43-1,4.38-7.1v-.07l3.42-29.76Z"/><path class="cls-5" d="M636.66,226.26H625.79c-3.6-96.59-92.29-169.2-200-169.2s-196.36,72.77-200,169.33H215.9c-7.4,0-11.61,7-7.27,12.1,5.34,6.22,13.17,13.44,23.44,18,22.19,15.94,100.5,27.73,193.69,27.73,93.75,0,172.4-11.92,194-28,10.59-4.82,18.57-12.41,23.86-18.75C647.61,232.76,643.51,226.26,636.66,226.26Z"/><path d="M425.76,292.16c-93.44,0-172.54-11.53-197.63-28.74a75.58,75.58,0,0,1-25.5-19.77,14.55,14.55,0,0,1-2.33-15.7c2.64-5.75,8.77-9.47,15.6-9.47h2.42c3.79-45.76,26.08-87.79,63.33-119C320.32,67,371.5,49.15,425.76,49.15S531.24,67,569.91,99.38c37.26,31.21,59.56,73.21,63.33,119h3.42a16.54,16.54,0,0,1,15.13,9.14,14,14,0,0,1-2,15.07c-5.27,6.31-14,14.93-25.92,20.53C599.19,280.5,519.93,292.16,425.76,292.16ZM215.5,234.33a60.38,60.38,0,0,0,19.79,15,7.92,7.92,0,0,1,1.39.8c9.69,7,34,13.69,66.74,18.44,35.14,5.1,77.44,7.8,122.33,7.8,45.17,0,87.67-2.73,122.91-7.89,32.8-4.8,57-11.57,66.42-18.56a7.94,7.94,0,0,1,1.44-.85,60.46,60.46,0,0,0,19.54-14.85H625.79a7.91,7.91,0,0,1-7.91-7.62c-1.64-44.17-22.29-85-58.13-115S476.33,65,425.76,65s-98.11,16.55-133.94,46.6-56.48,70.93-58.14,115.11a7.91,7.91,0,0,1-7.91,7.62H215.9Zm422.07.07h0Z"/><path class="cls-5" d="M528.87,159.16S519.19,27.7,451.77,58.49"/><path d="M528.86,167.08a7.91,7.91,0,0,1-7.88-7.33c-1.57-21.15-11.23-79.32-36.69-94.38-8.36-4.94-17.92-4.84-29.23.33a7.91,7.91,0,0,1-6.58-14.4c16.15-7.37,30.91-7.22,43.87.45,37.77,22.36,44.15,103.4,44.41,106.84a7.91,7.91,0,0,1-7.31,8.47Z"/><path class="cls-5" d="M323.22,159.16s9.67-131.47,77.1-100.67"/><path d="M323.22,167.08l-.59,0a7.91,7.91,0,0,1-7.31-8.47c.25-3.44,6.63-84.48,44.41-106.84,13-7.68,27.73-7.83,43.87-.45A7.91,7.91,0,0,1,397,65.69c-11.31-5.17-20.87-5.27-29.23-.32-25.51,15.1-35.13,73.25-36.68,94.38A7.91,7.91,0,0,1,323.22,167.08Z"/><path class="cls-5" d="M356.52,190.59s30.7-156,69.53-156c37.47,0,58.4,156,58.4,156"/><path d="M356.53,198.51a7.92,7.92,0,0,1-7.77-9.44,804,804,0,0,1,20.43-78.88c18.3-57,36.37-83.48,56.86-83.48,20.18,0,36.36,26.67,50.92,83.95a800,800,0,0,1,15.32,78.88,7.91,7.91,0,0,1-15.69,2.11,782.38,782.38,0,0,0-15-77.2C444.18,46,428.93,42.54,426,42.54c-4.34,0-20.17,5.23-41.79,72.49a785.67,785.67,0,0,0-20,77.09A7.92,7.92,0,0,1,356.53,198.51Z"/><rect class="cls-6" x="638.79" y="240.18" width="27.76" height="374.94" rx="11.79" ry="11.79" transform="translate(177.33 -191.15) rotate(19.24)"/><path d="M596.76,614.46a20.18,20.18,0,0,1-6.65-1.13l-3.94-1.38a20.27,20.27,0,0,1-12.44-25.77L689.47,254.43A20.27,20.27,0,0,1,715.24,242l3.94,1.38a20.27,20.27,0,0,1,12.44,25.77L615.87,600.88a20.32,20.32,0,0,1-19.12,13.57Zm-1.09-17.08a3.39,3.39,0,0,0,4.27-2.06L715.68,263.58a3.39,3.39,0,0,0-2.06-4.27l-3.94-1.38a3.39,3.39,0,0,0-4.27,2.06L589.66,591.74a3.39,3.39,0,0,0,2.06,4.27Z"/><path class="cls-3" d="M775.94,67.51s69.47,233.44,65.51,243.13S821.22,330,821.22,330,582.47,250.42,582,248.22s-3.52-15.77-3.08-18.44S760.55,57.4,775.94,67.51Z"/><path d="M849.7,302.93,796.52,76.78A26.27,26.27,0,0,0,753.69,63L578.5,215.56a26.27,26.27,0,0,0,9.2,44.82L816.07,334a26.27,26.27,0,0,0,33.63-31ZM829,314.26a7.25,7.25,0,0,1-7.12,1.57L593.54,242.26A7.23,7.23,0,0,1,591,229.92L766.19,77.34A7.23,7.23,0,0,1,778,81.14l53.18,226.15A7.24,7.24,0,0,1,829,314.26Z"/><path class="cls-2" d="M755.06,132.38c-6.89-2.22-13.47-.25-15.58,6.3-6.45,20-13.35,49.52-19.8,69.53-1.68,5.21,2.16,8.86,7.54,10.59,4,1.3,10.46,1,12.14-4.26,6.45-20,18.06-48,24.51-68C766,140,761.62,134.5,755.06,132.38Z"/><path class="cls-2" d="M723.65,230.47a13.6,13.6,0,1,0-8.34,25.89,13.6,13.6,0,0,0,8.34-25.89Z"/></svg>